<?xml version="1.0" encoding="UTF-8"?>
<svg xmlns="http://www.w3.org/2000/svg" version="1.1" width="462.00pt" height="635.09pt" viewBox="0 0 462.00 635.09">
<rect width="462.00" height="635.09" fill="white"/>
<rect x="172.00" y="12.00" width="118.00" height="31.82" rx="15.91" ry="15.91" fill="none" stroke="black" stroke-width="1.5"/>
<text x="231.00" y="31.06" text-anchor="middle" font-family="Arial" font-size="9" fill="black"><tspan x="231.00" dy="0.00">Начало</tspan></text>
<rect x="172.00" y="52.82" width="118.00" height="63.64" fill="none" stroke="black" stroke-width="1.5"/>
<text x="231.00" y="76.79" text-anchor="middle" font-family="Arial" font-size="9" fill="black"><tspan x="231.00" dy="0.00">Выбрать</tspan><tspan x="231.00" dy="11.00">недоставленные</tspan><tspan x="231.00" dy="11.00">совпадения из очереди</tspan></text>
<polygon points="231.00,125.45 290.00,157.27 231.00,189.09 172.00,157.27" fill="none" stroke="black" stroke-width="1.5"/>
<text x="231.00" y="154.92" text-anchor="middle" font-family="Arial" font-size="9" fill="black"><tspan x="231.00" dy="0.00">Остались</tspan><tspan x="231.00" dy="11.00">совпадения?</tspan></text>
<polygon points="231.00,198.09 290.00,229.91 231.00,261.73 172.00,229.91" fill="none" stroke="black" stroke-width="1.5"/>
<text x="231.00" y="227.56" text-anchor="middle" font-family="Arial" font-size="9" fill="black"><tspan x="231.00" dy="0.00">Лимит</tspan><tspan x="231.00" dy="11.00">исчерпан?</tspan></text>
<rect x="28.00" y="198.09" width="118.00" height="63.64" fill="none" stroke="black" stroke-width="1.5"/>
<text x="87.00" y="227.56" text-anchor="middle" font-family="Arial" font-size="9" fill="black"><tspan x="87.00" dy="0.00">Зафиксировать</tspan><tspan x="87.00" dy="11.00">транзакцию</tspan></text>
<polygon points="231.00,270.73 290.00,302.55 231.00,334.36 172.00,302.55" fill="none" stroke="black" stroke-width="1.5"/>
<text x="231.00" y="300.20" text-anchor="middle" font-family="Arial" font-size="9" fill="black"><tspan x="231.00" dy="0.00">Цена ниже</tspan><tspan x="231.00" dy="11.00">прежней?</tspan></text>
<rect x="316.00" y="270.73" width="118.00" height="63.64" fill="none" stroke="black" stroke-width="1.5"/>
<text x="375.00" y="305.70" text-anchor="middle" font-family="Arial" font-size="9" fill="black"><tspan x="375.00" dy="0.00">Оставить в очереди</tspan></text>
<polygon points="191.09,343.36 290.00,343.36 270.91,407.00 172.00,407.00" fill="none" stroke="black" stroke-width="1.5"/>
<text x="231.00" y="367.33" text-anchor="middle" font-family="Arial" font-size="9" fill="black"><tspan x="231.00" dy="0.00">Отправить</tspan><tspan x="231.00" dy="11.00">уведомление в</tspan><tspan x="231.00" dy="11.00">Telegram</tspan></text>
<rect x="28.00" y="343.36" width="118.00" height="63.64" fill="none" stroke="black" stroke-width="1.5"/>
<text x="87.00" y="372.83" text-anchor="middle" font-family="Arial" font-size="9" fill="black"><tspan x="87.00" dy="0.00">Закрыть совпадение</tspan><tspan x="87.00" dy="11.00">как дубликат</tspan></text>
<polygon points="231.00,416.00 290.00,447.82 231.00,479.64 172.00,447.82" fill="none" stroke="black" stroke-width="1.5"/>
<text x="231.00" y="445.47" text-anchor="middle" font-family="Arial" font-size="9" fill="black"><tspan x="231.00" dy="0.00">Сообщение</tspan><tspan x="231.00" dy="11.00">принято?</tspan></text>
<rect x="28.00" y="488.64" width="118.00" height="63.64" fill="none" stroke="black" stroke-width="1.5"/>
<text x="87.00" y="512.60" text-anchor="middle" font-family="Arial" font-size="9" fill="black"><tspan x="87.00" dy="0.00">Увеличить число</tspan><tspan x="87.00" dy="11.00">попыток, сохранить</tspan><tspan x="87.00" dy="11.00">текст ошибки</tspan></text>
<rect x="316.00" y="488.64" width="118.00" height="63.64" fill="none" stroke="black" stroke-width="1.5"/>
<text x="375.00" y="518.10" text-anchor="middle" font-family="Arial" font-size="9" fill="black"><tspan x="375.00" dy="0.00">Отметить доставку,</tspan><tspan x="375.00" dy="11.00">записать в журнал</tspan></text>
<rect x="172.00" y="591.27" width="118.00" height="31.82" rx="15.91" ry="15.91" fill="none" stroke="black" stroke-width="1.5"/>
<text x="231.00" y="610.33" text-anchor="middle" font-family="Arial" font-size="9" fill="black"><tspan x="231.00" dy="0.00">Конец</tspan></text>
<polyline points="231.00,43.82 231.00,52.82" fill="none" stroke="black" stroke-width="1.5"/>
<polyline points="231.00,116.45 231.00,125.45" fill="none" stroke="black" stroke-width="1.5"/>
<polyline points="231.00,189.09 231.00,198.09" fill="none" stroke="black" stroke-width="1.5"/>
<text x="239.00" y="196.59" text-anchor="start" font-family="Arial" font-size="9" fill="black">Да</text>
<polyline points="231.00,261.73 231.00,270.73" fill="none" stroke="black" stroke-width="1.5"/>
<text x="239.00" y="269.23" text-anchor="start" font-family="Arial" font-size="9" fill="black">Нет</text>
<polyline points="231.00,334.36 231.00,343.36" fill="none" stroke="black" stroke-width="1.5"/>
<text x="239.00" y="341.86" text-anchor="start" font-family="Arial" font-size="9" fill="black">Да</text>
<polyline points="231.00,407.00 231.00,416.00" fill="none" stroke="black" stroke-width="1.5"/>
<text x="129.50" y="153.27" text-anchor="middle" font-family="Arial" font-size="9" fill="black">Нет</text>
<polyline points="172.00,157.27 87.00,157.27 87.00,198.09" fill="none" stroke="black" stroke-width="1.5"/>
<text x="332.50" y="225.91" text-anchor="middle" font-family="Arial" font-size="9" fill="black">Да</text>
<polyline points="290.00,229.91 375.00,229.91 375.00,270.73" fill="none" stroke="black" stroke-width="1.5"/>
<text x="129.50" y="298.55" text-anchor="middle" font-family="Arial" font-size="9" fill="black">Нет</text>
<polyline points="172.00,302.55 87.00,302.55 87.00,343.36" fill="none" stroke="black" stroke-width="1.5"/>
<text x="332.50" y="443.82" text-anchor="middle" font-family="Arial" font-size="9" fill="black">Да</text>
<polyline points="290.00,447.82 375.00,447.82 375.00,488.64" fill="none" stroke="black" stroke-width="1.5"/>
<text x="129.50" y="443.82" text-anchor="middle" font-family="Arial" font-size="9" fill="black">Нет</text>
<polyline points="172.00,447.82 87.00,447.82 87.00,488.64" fill="none" stroke="black" stroke-width="1.5"/>
<polyline points="375.00,552.27 375.00,563.19 449.00,563.19 449.00,120.95 231.00,120.95" fill="none" stroke="black" stroke-width="1.5"/>
<line x1="231.00" y1="120.95" x2="237.93" y2="124.95" stroke="black" stroke-width="1.5" stroke-linecap="round"/>
<line x1="231.00" y1="120.95" x2="237.93" y2="116.95" stroke="black" stroke-width="1.5" stroke-linecap="round"/>
<polyline points="375.00,334.36 375.00,337.06 449.00,337.06" fill="none" stroke="black" stroke-width="1.5"/>
<polyline points="87.00,407.00 87.00,409.70 449.00,409.70" fill="none" stroke="black" stroke-width="1.5"/>
<polyline points="87.00,552.27 87.00,563.19 375.00,563.19" fill="none" stroke="black" stroke-width="1.5"/>
<polyline points="87.00,261.73 87.00,264.43 13.00,264.43 13.00,579.57 231.00,579.57" fill="none" stroke="black" stroke-width="1.5"/>
<polyline points="231.00,579.57 231.00,591.27" fill="none" stroke="black" stroke-width="1.5"/>
</svg>
